<?xml version="1.0" standalone="no"?>
<!DOCTYPE svg PUBLIC "-//W3C//DTD SVG 20010904//EN"
 "http://www.w3.org/TR/2001/REC-SVG-20010904/DTD/svg10.dtd">
<svg version="1.0" xmlns="http://www.w3.org/2000/svg"
 width="300.000000pt" height="290.000000pt" viewBox="0 0 300.000000 290.000000"
 preserveAspectRatio="xMidYMid meet">

<g transform="translate(0.000000,290.000000) scale(0.100000,-0.100000)"
fill="#000000" stroke="none">
<path d="M1435 2776 c-66 -16 -101 -36 -149 -83 -105 -103 -120 -281 -32 -397
l34 -44 -170 -234 c-93 -128 -173 -237 -177 -241 -5 -5 -34 -1 -66 9 -202 58
-397 -87 -397 -296 0 -105 41 -183 136 -255 l34 -26 -81 -242 -82 -242 -66 -2
c-111 -3 -208 -62 -266 -161 -21 -36 -28 -62 -31 -128 -4 -71 -1 -89 20 -136
53 -114 142 -177 266 -185 174 -12 322 124 322 297 0 94 -23 154 -84 215 -28
29 -59 56 -69 62 -16 8 -10 30 65 253 l83 245 60 0 59 0 83 -245 c56 -166 78
-246 70 -249 -30 -10 -117 -106 -135 -149 -34 -79 -37 -132 -12 -213 18 -59
30 -81 74 -124 122 -122 310 -127 430 -11 64 63 88 116 94 207 4 67 1 83 -23
138 -52 115 -160 184 -286 184 l-55 0 -82 246 c-76 225 -81 246 -65 254 43 23
121 115 136 162 34 98 15 217 -48 299 l-27 35 69 93 c38 51 115 157 172 236
57 78 108 145 112 148 5 3 29 -2 54 -11 58 -19 127 -19 194 1 29 8 55 13 57
11 2 -2 83 -111 178 -241 l174 -238 -34 -44 c-35 -47 -64 -127 -64 -179 0 -88
61 -205 131 -252 21 -14 39 -31 39 -37 0 -6 -35 -117 -78 -246 l-79 -235 -66
-2 c-265 -6 -399 -316 -221 -513 21 -23 61 -54 88 -68 44 -23 64 -27 136 -27
102 0 160 24 227 92 116 120 108 324 -18 437 -20 19 -44 38 -54 43 -16 9 -11
30 64 255 l82 245 61 -1 61 -2 81 -243 81 -242 -30 -22 c-49 -35 -88 -80 -115
-133 -34 -67 -34 -176 -1 -252 47 -105 165 -182 280 -182 89 0 149 26 217 94
72 72 89 114 89 221 0 57 -5 81 -28 127 -51 103 -157 170 -273 171 l-64 1 -81
245 c-77 229 -81 246 -64 256 44 24 99 82 123 129 23 44 27 63 27 136 0 73 -4
92 -27 135 -73 139 -214 201 -364 160 -36 -10 -66 -16 -68 -14 -1 2 -76 105
-166 229 -90 124 -168 230 -173 237 -6 8 2 27 23 57 81 118 81 256 1 362 -46
62 -103 99 -177 119 -67 17 -72 17 -139 1z m134 -82 c203 -60 215 -347 19
-428 -85 -36 -208 -4 -263 67 -104 137 -37 327 130 368 46 11 57 10 114 -7z
m-716 -985 c47 -13 112 -70 138 -120 23 -47 25 -135 4 -187 -64 -151 -273
-183 -382 -58 -42 46 -56 95 -51 172 5 81 42 137 118 177 56 29 109 34 173 16z
m1450 -5 c58 -20 122 -87 137 -146 46 -168 -99 -324 -269 -287 -145 31 -221
192 -153 326 26 49 56 77 112 102 54 25 111 26 173 5z m-1768 -1089 c78 -45
115 -107 115 -193 0 -96 -41 -166 -123 -207 -178 -88 -378 75 -322 263 43 144
202 210 330 137z m671 20 c213 -63 221 -356 11 -434 -77 -29 -201 6 -249 70
-43 57 -52 82 -52 144 1 110 71 199 179 226 46 11 57 10 111 -6z m703 4 c179
-38 242 -260 110 -386 -109 -103 -292 -74 -359 57 -75 148 19 314 192 339 4 1
30 -4 57 -10z m720 0 c69 -15 123 -56 155 -120 76 -152 -32 -328 -202 -329
-106 0 -200 74 -223 175 -31 139 62 262 213 284 4 1 30 -4 57 -10z"/>
<path d="M1250 1511 c-16 -31 -12 -117 6 -135 39 -39 64 -10 64 75 0 52 -4 68
-16 73 -27 10 -43 7 -54 -13z"/>
<path d="M1482 1518 c-7 -7 -12 -39 -12 -75 0 -51 3 -64 19 -73 25 -13 27 -13
45 6 11 10 16 34 16 73 0 58 -11 81 -40 81 -9 0 -21 -5 -28 -12z"/>
<path d="M1700 1511 c-16 -31 -12 -117 6 -135 38 -38 64 -10 64 69 0 34 -5 66
-12 73 -18 18 -46 14 -58 -7z"/>
</g>
</svg>
