<?xml version="1.0" standalone="no"?>
<!DOCTYPE svg PUBLIC "-//W3C//DTD SVG 20010904//EN" "http://www.w3.org/TR/2001/REC-SVG-20010904/DTD/svg10.dtd">
<svg version="1.0" xmlns="http://www.w3.org/2000/svg"
     width="40" height="32" viewBox="0 0 128.000000 128.000000"
 preserveAspectRatio="xMidYMid meet">

<g transform="translate(0.000000,128.000000) scale(0.100000,-0.100000)"
fill="#000000" stroke="none">
<path d="M225 984 c-77 -28 -125 -95 -125 -174 0 -55 21 -102 59 -131 l32 -25 -38 -25 c-98 -64 -106 -209 -16 -293 50 -47 100 -56 300 -56 l183 0 0 360 0 360 -177 -1 c-129 0 -189 -4 -218 -15z m255 -189 l0 -95 -80 0 c-117 0 -160
27 -160 100 0 22 9 41 29 61 28 28 33 29 120 29 l91 0 0 -95z m-1 -291 c-5
-106 -12 -114 -115 -114 -115 0 -148 26 -142 110 3 38 8 48 37 67 29 20 47 23
129 23 l94 0 -3 -86z"/>
<path d="M660 640 l0 -360 183 0 c214 0 256 9 311 70 80 89 68 215 -25 277
l-40 26 32 25 c82 65 79 199 -5 269 -56 46 -95 53 -285 53 l-171 0 0 -360z
m351 221 c20 -20 29 -39 29 -61 0 -73 -43 -100 -160 -100 l-80 0 0 95 0 95 91
0 c87 0 92 -1 120 -29z m23 -300 c21 -20 26 -34 26 -70 -1 -79 -33 -101 -148
-101 -101 0 -106 6 -111 117 l-3 85 105 -4 c95 -3 108 -5 131 -27z"/>
</g>
</svg>
